# xmcd
#
# Track frame offsets:
#	150
#	14568
#	28495
#	43295
#	57580
#	71620
#	84452
#	99331
#	114075
#	128730
#	142681
#	157490
#
# Disc length: 2292 seconds
#
# Revision: 0
# Processed by: cddbd v1.5.2PL0 Copyright (c) Steve Scherf et al.
# Submitted via: EasyCDDAExtractor 16.0.6.1
#
DISCID=a808f20c
DTITLE=Συλλογικός δίσκος - Τα τραγούδια των Ελλήνων 1957-4
DYEAR=2009
DGENRE=Λαϊκή
TTITLE0=Γαβαλάς Πάνος - Θα βρω μουρμούρη μπαγλαμά [Απ. Καλδάρας-Ευτ. Παπαγιανν
TTITLE0=οπούλου]
TTITLE1=Μπιθικώτσης Γρηγόρης - Ο τσολιάς [Βασ. Τσιτσάνης-Νικ. Λούπας]
TTITLE2=Καζαντζίδης Στέλιος - Το κόκκινο μαντήλι [Βασ. Τσιτσάνης-Βασ. Τσιτσάνη
TTITLE2=ς/Νικ. Λούπας]
TTITLE3=Περπινιάδης Βαγγέλης - Έχω πλάϊ μου γυναίκα [Β. Περπινιάδης-Σπ. Περιστ
TTITLE3=έρης/Β. Περπινιάδης]
TTITLE4=Λύδια Γιώτα - Κάνε κότσο τα μαλλιά σου [Άκης Σμυρναίος-Θάνος Σοφός/Αθ.
TTITLE4=Τσόγκας]
TTITLE5=Λύδια Γιώτα-Χιώτης Μανώλης - Οι φωτογραφίες [Μ. Χιώτης-Χρ. Κολοκοτρώνη
TTITLE5=ς]
TTITLE6=Καζαντζίδης Στέλιος - Στο σκαλί το τελευταίο [Μπάμπης Μπακάλης-Κώστας 
TTITLE6=Βίρβος]
TTITLE7=Γκρέϋ Καίτη-Μπιθικώτσης Γρηγόρης - Εγώ είμαι το μπεγλέρι σου [Βασίλης 
TTITLE7=Τσιτσάνης]
TTITLE8=Λύδια Γιώτα-Αναγνωστάκης Πέτρος - Είμαι γνήσια τσιγγάνα [Βασ. Καραπατά
TTITLE8=κης-Χρ. Κολοκοτρώνης]
TTITLE9=Μπιθικώτσης Γρηγόρης-Λύδια Γιώτα - Ο φλώρος [Βασ. Τσιτσάνης-Ευτ. Παπαγ
TTITLE9=ιαννοπούλου]
TTITLE10=Καζαντζίδης Στέλιος - Στο πιο όμορφο χαρέμι [Βασ. Καραπατάκης-Χρ. Κολ
TTITLE10=οκοτρώνης]
TTITLE11=Λύδια Γιώτα - Αλά τούρκα χόρεψέ μου [Βασίλης Τσιτσάνης]
EXTD=
EXTT0=
EXTT1=
EXTT2=
EXTT3=
EXTT4=
EXTT5=
EXTT6=
EXTT7=
EXTT8=
EXTT9=
EXTT10=
EXTT11=
PLAYORDER=
